# xmcd
# Copyright (C) 1995-1998 Ti Kan
#
# Track frame offsets:
#       150
#       16339
#       31430
#       49332
#       63693
#       80637
#       94726
#       106603
#       120819
#       141298
#       158021
#       171407
#
# Disc length: 2510 seconds
#
# Revision: 0
# Processed by: cddbd v1.5.1PL0 Copyright (c) Steve Scherf et al.
# Submitted via: CD-Transfer v1.0
#
DISCID=9809cc0c
DTITLE=Belcafé - Primadonna
DYEAR=2004
DGENRE=
TTITLE0=People On This Train
TTITLE1=Love Is Out Of Town
TTITLE2=Here And Now
TTITLE3=Primadonna
TTITLE4=Sittin' In A Room
TTITLE5=Hey Babe
TTITLE6=Wanna Kiss U
TTITLE7=Shangri-La
TTITLE8=Little Town Blues
TTITLE9=Wishin' The Days Away
TTITLE10=Don't Mind
TTITLE11=Into The Big
EXTD=
EXTT0=
EXTT1=
EXTT2=
EXTT3=
EXTT4=
EXTT5=
EXTT6=
EXTT7=
EXTT8=
EXTT9=
EXTT10=
EXTT11=
PLAYORDER=
